<svg width="83" height="75" viewBox="0 0 83 75" fill="none" xmlns="http://www.w3.org/2000/svg">
<path d="M76.0631 13.6291H6.92072C3.09568 13.6291 0 16.6968 0 20.4516V23.8549H82.9838V20.4516C82.9838 16.6968 79.8881 13.6291 76.0631 13.6291ZM34.5712 6.82254H48.3964V10.2258H55.3171V6.82254C55.3171 3.06775 52.2214 0 48.3964 0H34.5712C30.7624 0 27.6505 3.05177 27.6505 6.82254V10.2258H34.5712V6.82254ZM0 68.1775C0 71.9323 3.09568 75 6.92072 75H76.0793C79.8881 75 83 71.9482 83 68.1775V64.7742H0V68.1775ZM0 57.9516H82.9838V30.6775H0V57.9516Z" fill="#A3B4F2"/>
</svg>
