<svg width="73" height="73" viewBox="0 0 73 73" fill="none" xmlns="http://www.w3.org/2000/svg">
<path d="M39.8365 1.28707C36.712 0.0202768 33.2169 0.0202768 30.0925 1.28707L22.5199 4.35757L55.6869 17.2551L67.3534 12.7496C66.8753 12.3527 66.3388 12.032 65.7628 11.7987L39.8365 1.28707V1.28707ZM69.5422 17.4625L37.5578 29.8206V41.4042C37.8419 41.3153 38.1304 41.2415 38.4222 41.1829V41.01C38.4222 38.4881 39.4241 36.0694 41.2073 34.2862C42.9906 32.5029 45.4092 31.5011 47.9311 31.5011H60.0333C62.5481 31.5011 64.9604 32.4972 66.7425 34.2715C68.5246 36.0458 69.5312 38.4538 69.5422 40.9685V17.4625ZM32.3711 29.8206V45.882C31.8179 47.023 31.5067 48.3024 31.5067 49.6544V66.9433C31.5067 67.092 31.5101 67.2407 31.5171 67.3859C31.0332 67.2524 30.5575 67.0907 30.0925 66.9018L4.16607 56.3902C3.04932 55.9378 2.09304 55.1624 1.41972 54.1632C0.746405 53.164 0.386712 51.9865 0.386719 50.7816V17.466L32.3711 29.8241V29.8206ZM2.57549 12.7496L34.9645 25.2633L48.5086 20.0282L15.511 7.19986L4.16607 11.7987C3.57824 12.0373 3.04575 12.3589 2.57549 12.7496V12.7496ZM41.88 44.4643H40.1511C38.7755 44.4643 37.4563 45.0107 36.4836 45.9834C35.5109 46.9561 34.9645 48.2754 34.9645 49.651V54.8376H43.6089V53.9732C43.6089 53.2854 43.8821 52.6258 44.3685 52.1394C44.8548 51.6531 45.5144 51.3798 46.2022 51.3798C46.89 51.3798 47.5496 51.6531 48.036 52.1394C48.5223 52.6258 48.7956 53.2854 48.7956 53.9732V54.8376H59.1689V53.9732C59.1689 53.2854 59.4421 52.6258 59.9284 52.1394C60.4148 51.6531 61.0744 51.3798 61.7622 51.3798C62.45 51.3798 63.1096 51.6531 63.596 52.1394C64.0823 52.6258 64.3555 53.2854 64.3555 53.9732V54.8376H73V49.651C73 48.2754 72.4535 46.9561 71.4808 45.9834C70.5081 45.0107 69.1889 44.4643 67.8133 44.4643H66.0844V41.0065C66.0844 39.4017 65.4469 37.8625 64.3121 36.7277C63.1773 35.5929 61.6382 34.9554 60.0333 34.9554H47.9311C46.3263 34.9554 44.7871 35.5929 43.6523 36.7277C42.5175 37.8625 41.88 39.4017 41.88 41.0065V44.4643ZM47.0667 41.0065C47.0667 40.7773 47.1577 40.5574 47.3199 40.3953C47.482 40.2332 47.7018 40.1421 47.9311 40.1421H60.0333C60.2626 40.1421 60.4825 40.2332 60.6446 40.3953C60.8067 40.5574 60.8978 40.7773 60.8978 41.0065V44.4643H47.0667V41.0065ZM34.9645 66.9398V60.0243H43.6089V62.6176C43.6089 63.3054 43.8821 63.965 44.3685 64.4514C44.8548 64.9377 45.5144 65.2109 46.2022 65.2109C46.89 65.2109 47.5496 64.9377 48.036 64.4514C48.5223 63.965 48.7956 63.3054 48.7956 62.6176V60.0243H59.1689V62.6176C59.1689 63.3054 59.4421 63.965 59.9284 64.4514C60.4148 64.9377 61.0744 65.2109 61.7622 65.2109C62.45 65.2109 63.1096 64.9377 63.596 64.4514C64.0823 63.965 64.3555 63.3054 64.3555 62.6176V60.0243H73V66.9398C73 68.3154 72.4535 69.6347 71.4808 70.6073C70.5081 71.58 69.1889 72.1265 67.8133 72.1265H40.1511C38.7755 72.1265 37.4563 71.58 36.4836 70.6073C35.5109 69.6347 34.9645 68.3154 34.9645 66.9398Z" fill="white"/>
</svg>
