<svg width="232" height="229" viewBox="0 0 232 229" fill="none" xmlns="http://www.w3.org/2000/svg">
<path d="M125.709 3.02754C115.753 -1.00918 104.616 -1.00918 94.6592 3.02754L70.5289 12.8119L176.217 53.9106L213.394 39.5536C211.87 38.2889 210.16 37.2668 208.325 36.5235L125.709 3.02754ZM220.368 54.5717L118.448 93.9515V130.863C119.353 130.58 120.273 130.345 121.203 130.158V129.607C121.203 121.571 124.395 113.864 130.077 108.181C135.76 102.499 143.467 99.3064 151.503 99.3064H190.068C198.081 99.3064 205.768 102.481 211.447 108.134C217.125 113.788 220.333 121.462 220.368 129.475V54.5717ZM101.92 93.9515V145.132C100.157 148.768 99.1657 152.845 99.1657 157.153V212.245C99.1657 212.719 99.1767 213.193 99.1988 213.656C97.6569 213.23 96.1411 212.715 94.6592 212.113L12.0431 178.617C8.48454 177.176 5.43729 174.705 3.29173 171.521C1.14616 168.337 -2.23181e-05 164.585 3.25931e-10 160.745V54.5827L101.92 93.9625V93.9515ZM6.97465 39.5536L110.184 79.4292L153.343 62.7473L48.1945 21.869L12.0431 36.5235C10.17 37.2838 8.47316 38.3085 6.97465 39.5536ZM132.221 140.614H126.712C122.328 140.614 118.124 142.356 115.025 145.455C111.925 148.555 110.184 152.759 110.184 157.142V173.67H137.73V170.915C137.73 168.723 138.601 166.621 140.151 165.072C141.7 163.522 143.802 162.651 145.994 162.651C148.186 162.651 150.288 163.522 151.837 165.072C153.387 166.621 154.258 168.723 154.258 170.915V173.67H187.313V170.915C187.313 168.723 188.184 166.621 189.733 165.072C191.283 163.522 193.385 162.651 195.577 162.651C197.769 162.651 199.87 163.522 201.42 165.072C202.97 166.621 203.841 168.723 203.841 170.915V173.67H231.387V157.142C231.387 152.759 229.645 148.555 226.546 145.455C223.446 142.356 219.242 140.614 214.859 140.614H209.35V129.596C209.35 124.482 207.318 119.578 203.702 115.961C200.086 112.345 195.182 110.314 190.068 110.314H151.503C146.389 110.314 141.485 112.345 137.869 115.961C134.252 119.578 132.221 124.482 132.221 129.596V140.614ZM148.749 129.596C148.749 128.865 149.039 128.165 149.555 127.648C150.072 127.132 150.773 126.841 151.503 126.841H190.068C190.798 126.841 191.499 127.132 192.015 127.648C192.532 128.165 192.822 128.865 192.822 129.596V140.614H148.749V129.596ZM110.184 212.234V190.197H137.73V198.461C137.73 200.653 138.601 202.755 140.151 204.305C141.7 205.854 143.802 206.725 145.994 206.725C148.186 206.725 150.288 205.854 151.837 204.305C153.387 202.755 154.258 200.653 154.258 198.461V190.197H187.313V198.461C187.313 200.653 188.184 202.755 189.733 204.305C191.283 205.854 193.385 206.725 195.577 206.725C197.769 206.725 199.87 205.854 201.42 204.305C202.97 202.755 203.841 200.653 203.841 198.461V190.197H231.387V212.234C231.387 216.618 229.645 220.821 226.546 223.921C223.446 227.02 219.242 228.762 214.859 228.762H126.712C122.328 228.762 118.124 227.02 115.025 223.921C111.925 220.821 110.184 216.618 110.184 212.234Z" fill="#A3B4F2"/>
</svg>
