<svg width="73" height="72" viewBox="0 0 73 72" fill="none" xmlns="http://www.w3.org/2000/svg">
<path d="M71.7651 23.19C70.9695 21.397 69.8258 19.775 68.3986 18.4152C66.9572 17.0388 65.2624 15.9468 63.4054 15.198C61.4648 14.4142 59.3874 14.0131 57.2904 14.0172C55.1698 14.0172 53.1112 14.4144 51.1754 15.198C49.3178 15.9457 47.6228 17.0379 46.1822 18.4152C44.7535 19.7737 43.6096 21.3961 42.8157 23.19C41.9972 25.0332 41.5758 27.0241 41.5784 29.0364V56.9784C41.5784 62.8944 36.5475 67.7076 30.3595 67.7076C24.1727 67.7076 19.1382 62.8932 19.1382 56.9784V44.1036H22.6835C23.4293 44.1036 24.0316 43.5288 24.0316 42.816V38.0496C27.9103 35.7588 30.4945 31.656 30.4945 26.9772V21.5676H32.4473C33.1895 21.5676 33.7929 20.9928 33.7929 20.28V15.2592C33.7929 14.664 33.372 14.1624 32.8001 14.016H24.9076V1.2876C24.9113 0.5772 24.3078 0 23.5632 0H21.7686C21.0228 0 20.4218 0.5772 20.4218 1.2876V14.016H13.3748V1.2876C13.3748 0.5772 12.7713 0 12.028 0H10.2322C9.49 0 8.88653 0.5772 8.88653 1.2876V14.016H0.995233C0.713117 14.0856 0.462367 14.2455 0.282268 14.4707C0.102169 14.6958 0.00289504 14.9736 0 15.2604V20.28C0 20.9928 0.603467 21.5676 1.34442 21.5676H3.29838V26.9772C3.29838 31.6572 5.88015 35.7576 9.76132 38.0496V42.816C9.76132 43.5288 10.3624 44.1036 11.1057 44.1036H14.6523V56.9784C14.6523 59.0064 15.0696 60.9732 15.8872 62.826C16.6819 64.6195 17.8257 66.2417 19.2538 67.6008C20.6944 68.9786 22.3894 70.0715 24.247 70.8204C26.1839 71.604 28.2437 72 30.3619 72C32.4801 72 34.5424 71.604 36.4769 70.8204C38.3346 70.0725 40.0294 68.9795 41.4689 67.6008C42.8993 66.2435 44.0438 64.6208 44.8366 62.826C45.6549 60.9823 46.0758 58.991 46.0727 56.9784V29.0364C46.0727 23.1216 51.1037 18.3072 57.2928 18.3072C63.4796 18.3072 68.5142 23.1228 68.5142 29.0364V72H73V29.0364C73 27.0108 72.5827 25.0416 71.7651 23.19Z" fill="#A3B4F2"/>
</svg>
