<svg width="80" height="80" viewBox="0 0 80 80" fill="none" xmlns="http://www.w3.org/2000/svg">
<path d="M47.01 51.23C50.135 51.23 52.93 48.81 52.93 45.33C52.93 41.17 50.295 39.18 47.13 39.18C44.2 39.18 41.29 41.115 41.29 45.23C41.29 49.315 44.005 51.23 47.01 51.23Z" fill="white"/>
<path d="M17.5 0C18.163 0 18.7989 0.263392 19.2678 0.732233C19.7366 1.20107 20 1.83696 20 2.5V5H60V2.5C60 1.83696 60.2634 1.20107 60.7322 0.732233C61.2011 0.263392 61.837 0 62.5 0C63.163 0 63.7989 0.263392 64.2678 0.732233C64.7366 1.20107 65 1.83696 65 2.5V5H70C72.6522 5 75.1957 6.05357 77.0711 7.92893C78.9464 9.8043 80 12.3478 80 15V70C80 72.6522 78.9464 75.1957 77.0711 77.0711C75.1957 78.9464 72.6522 80 70 80H10C7.34784 80 4.8043 78.9464 2.92893 77.0711C1.05357 75.1957 0 72.6522 0 70V15C0 12.3478 1.05357 9.8043 2.92893 7.92893C4.8043 6.05357 7.34784 5 10 5H15V2.5C15 1.83696 15.2634 1.20107 15.7322 0.732233C16.2011 0.263392 16.837 0 17.5 0V0ZM67.27 15H12.725C11.225 15 10 16.12 10 17.5V22.5C10 23.88 11.22 25 12.725 25H67.275C68.775 25 70 23.88 70 22.5V17.5C70 16.12 68.78 15 67.27 15ZM46.68 63.95C52.97 63.95 56.68 58.615 56.68 49.59C56.68 39.92 52.775 36.25 46.915 36.25C42.285 36.25 37.93 39.61 37.93 45.295C37.93 51.095 42.05 54.145 46.31 54.145C50.04 54.145 52.46 52.265 53.225 50.195H53.36C53.34 56.775 51.055 61.015 46.835 61.015C43.515 61.015 41.795 58.765 41.585 56.915H38.165C38.4 60.115 41.135 63.945 46.68 63.945V63.95ZM32.23 36.775H29.065C26.7966 37.9815 24.6042 39.3257 22.5 40.8V44.275C24.375 42.99 27.345 41.175 28.79 40.39H28.85V63.44H32.225V36.77L32.23 36.775Z" fill="white"/>
</svg>
