<svg width="60" height="74" viewBox="0 0 60 74" fill="none" xmlns="http://www.w3.org/2000/svg">
<path d="M30 0C30 0 60 28.046 60 44.4C60 52.2504 56.8393 59.7793 51.2132 65.3304C45.5871 70.8814 37.9565 74 30 74C22.0435 74 14.4129 70.8814 8.7868 65.3304C3.16071 59.7793 0 52.2504 0 44.4C0 38.85 3.4125 32.005 7.95 25.345C8.70911 27.9132 10.3827 30.1244 12.6628 31.5719C14.943 33.0194 17.6762 33.6058 20.3596 33.223C23.043 32.8403 25.4961 31.5142 27.2674 29.4889C29.0387 27.4635 30.0091 24.8751 30 22.2V0ZM22.5 0C19.5163 0 16.6548 1.16946 14.545 3.25111C12.4353 5.33277 11.25 8.1561 11.25 11.1C11.25 14.0439 12.4353 16.8672 14.545 18.9489C16.6548 21.0305 19.5163 22.2 22.5 22.2V0Z" fill="#A3B4F2"/>
</svg>
