<svg width="79" height="71" viewBox="0 0 79 71" fill="none" xmlns="http://www.w3.org/2000/svg">
<path d="M7.01714 19.0562C6.56156 18.0992 6.41323 17.0239 6.59259 15.9787C6.77196 14.9335 7.27019 13.9699 8.01858 13.2207L12.835 8.38958C13.5821 7.6402 14.5424 7.14155 15.5837 6.96227C16.625 6.78299 17.6961 6.9319 18.6495 7.38851L23.6737 2.34901C24.9513 1.06798 26.6838 0.348334 28.4902 0.348334C30.2966 0.348334 32.0291 1.06798 33.3067 2.34901L42.943 12.0146C44.2201 13.296 44.9376 15.0338 44.9376 16.8457C44.9376 18.6576 44.2201 20.3954 42.943 21.6768L38.1231 26.5079L37.9528 26.337L25.9117 38.4182L26.082 38.589L21.2655 43.4201C20.6329 44.0549 19.8818 44.5585 19.055 44.9021C18.2283 45.2457 17.3422 45.4225 16.4474 45.4225C15.5525 45.4225 14.6664 45.2457 13.8397 44.9021C13.013 44.5585 12.2619 44.0549 11.6292 43.4201L1.99632 33.7579C1.36342 33.1234 0.86137 32.37 0.518836 31.5407C0.176302 30.7115 0 29.8227 0 28.9251C0 28.0276 0.176302 27.1388 0.518836 26.3095C0.86137 25.4803 1.36342 24.7269 1.99632 24.0923L7.01374 19.0562H7.01714ZM30.7247 43.2459L42.7692 31.1681L54.9841 43.4201L42.943 55.5013L30.7281 43.2493L30.7247 43.2459ZM47.756 60.3289L59.8005 48.2512L65.8228 54.2918C67.4085 55.8958 68.2961 58.0645 68.2915 60.3234C68.2869 62.5823 67.3904 64.7473 65.7982 66.3448C64.206 67.9423 62.0477 68.8422 59.7957 68.8474C57.5437 68.8527 55.3813 67.963 53.7817 66.3729L47.7594 60.3324L47.756 60.3289ZM57.3957 7.1801L71.8451 21.6768L58.7684 34.7932C56.6804 36.8876 52.8279 36.4263 50.1676 33.7579L45.3512 28.9234C42.6909 26.2585 42.2276 22.3943 44.3191 20.2965L57.3923 7.1801H57.3957ZM62.2088 2.34901L63.2409 1.31378C65.3289 -0.784024 69.1814 -0.319364 71.8417 2.34901L76.6581 7.1801C79.3184 9.84848 79.7816 13.7127 77.6902 15.8105L76.6581 16.8457L62.2122 2.34901H62.2088ZM18.8573 55.5013L26.0786 48.2512C26.3948 47.9338 26.7703 47.6819 27.1836 47.51C27.5969 47.3382 28.0399 47.2496 28.4873 47.2495C28.9347 47.2493 29.3778 47.3375 29.7912 47.5091C30.2046 47.6807 30.5802 47.9323 30.8967 48.2495C31.2132 48.5667 31.4643 48.9433 31.6356 49.3579C31.807 49.7724 31.8953 50.2168 31.8954 50.6655C31.8956 51.1143 31.8076 51.5587 31.6366 51.9734C31.4655 52.3881 31.2147 52.7649 30.8984 53.0823L23.6737 60.3358C24.3123 60.9765 24.6711 61.8454 24.6711 62.7513C24.6711 63.6573 24.3123 64.5262 23.6737 65.1669L18.8573 69.9979C18.5409 70.3156 18.1653 70.5676 17.7518 70.7396C17.3383 70.9115 16.895 71 16.4474 71C15.9997 71 15.5565 70.9115 15.143 70.7396C14.7295 70.5676 14.3538 70.3156 14.0374 69.9979L9.22099 65.1669C8.58242 64.5262 8.22369 63.6573 8.22369 62.7513C8.22369 61.8454 8.58242 60.9765 9.22099 60.3358L14.0374 55.5047C14.3538 55.187 14.7295 54.935 15.143 54.7631C15.5565 54.5911 15.9997 54.5026 16.4474 54.5026C16.895 54.5026 17.3383 54.5911 17.7518 54.7631C18.1653 54.935 18.5409 55.187 18.8573 55.5047V55.5013Z" fill="#A3B4F2"/>
</svg>
