<svg width="90" height="90" viewBox="0 0 90 90" fill="none" xmlns="http://www.w3.org/2000/svg">
<path d="M45 5.625C36.7978 5.63468 28.9344 8.89726 23.1346 14.6971C17.3348 20.4969 14.0722 28.3603 14.0625 36.5625C14.0527 43.2653 16.2421 49.7863 20.295 55.125C20.295 55.125 21.1388 56.2359 21.2766 56.3963L45 84.375L68.7347 56.3822C68.8584 56.2331 69.705 55.125 69.705 55.125L69.7078 55.1166C73.7587 49.7802 75.9471 43.2622 75.9375 36.5625C75.9278 28.3603 72.6652 20.4969 66.8654 14.6971C61.0656 8.89726 53.2022 5.63468 45 5.625ZM45 47.8125C42.775 47.8125 40.5999 47.1527 38.7498 45.9165C36.8998 44.6804 35.4578 42.9234 34.6064 40.8677C33.7549 38.812 33.5321 36.55 33.9662 34.3677C34.4003 32.1854 35.4717 30.1809 37.045 28.6075C38.6184 27.0342 40.6229 25.9627 42.8052 25.5287C44.9875 25.0946 47.2495 25.3174 49.3052 26.1689C51.3609 27.0203 53.1179 28.4623 54.354 30.3123C55.5902 32.1624 56.25 34.3375 56.25 36.5625C56.2463 39.545 55.0598 42.4044 52.9508 44.5133C50.8419 46.6223 47.9825 47.8088 45 47.8125Z" fill="#A3B4F2"/>
</svg>
