<svg width="84" height="59" viewBox="0 0 84 59" fill="none" xmlns="http://www.w3.org/2000/svg">
<path d="M49.6356 26.9444L83.853 9.52963L54.5215 52.3416L24.8598 48.8485L13.5881 26.7013L28.2209 0.664793L80.0958 2.14722L45.8783 19.562C44.3495 18.5682 42.5354 18.1066 40.7175 18.2488C38.8996 18.391 37.1794 19.1291 35.8237 20.3487C34.468 21.5682 33.5526 23.201 33.2195 24.9938C32.8864 26.7866 33.1541 28.6392 33.9812 30.2643C34.8083 31.8894 36.1485 33.1962 37.794 33.982C39.4395 34.7678 41.2983 34.9887 43.0821 34.6104C44.8659 34.2321 46.4751 33.2757 47.66 31.8897C48.8449 30.5036 49.5393 28.7654 49.6356 26.9444ZM8.01829 24.8887L23.0472 54.4184L15.6648 58.1756L0.635882 28.646L8.01829 24.8887Z" fill="#A3B4F2"/>
</svg>
