<svg width="82" height="66" viewBox="0 0 82 66" fill="none" xmlns="http://www.w3.org/2000/svg">
<path d="M73.8 0H8.2C3.649 0 0.041 3.67125 0.041 8.25L0 57.75C0 62.3288 3.649 66 8.2 66H73.8C78.351 66 82 62.3288 82 57.75V8.25C82 3.67125 78.351 0 73.8 0ZM41 24.75H24.6V28.875H36.9C39.155 28.875 41 30.7313 41 33V45.375C41 47.6437 39.155 49.5 36.9 49.5H32.8V53.625H24.6V49.5H16.4V41.25H32.8V37.125H20.5C18.245 37.125 16.4 35.2687 16.4 33V20.625C16.4 18.3563 18.245 16.5 20.5 16.5H24.6V12.375H32.8V16.5H41V24.75ZM57.4 50.5312L49.2 42.2812H65.6L57.4 50.5312ZM49.2 24.75L57.4 16.5L65.6 24.75H49.2Z" fill="#A3B4F2"/>
</svg>
