<svg width="40" height="40" viewBox="0 0 40 40" fill="none" xmlns="http://www.w3.org/2000/svg">
<path d="M18.3331 3.13932C18.9091 1.62023 21.0887 1.62023 21.6665 3.13932L25.3922 13.4598C25.6532 14.1438 26.3173 14.5991 27.0589 14.5991H36.2149C37.9067 14.5991 38.6447 16.705 37.3146 17.7363L30.799 23.5985C30.5072 23.8229 30.2939 24.1339 30.1898 24.487C30.0856 24.8401 30.096 25.2172 30.2195 25.564L32.5989 35.6487C33.1785 37.2686 31.303 38.6599 29.8847 37.6627L21.0347 32.0471C20.7316 31.8341 20.3702 31.7198 19.9998 31.7198C19.6293 31.7198 19.2679 31.8341 18.9648 32.0471L10.1149 37.6627C8.69836 38.6599 6.82108 37.2668 7.40064 35.6487L9.78008 25.564C9.90351 25.2172 9.91392 24.8401 9.80979 24.487C9.70567 24.1339 9.49238 23.8229 9.20052 23.5985L2.68497 17.7363C1.35306 16.705 2.09461 14.5991 3.78289 14.5991H12.9389C13.2994 14.6003 13.6517 14.492 13.9493 14.2886C14.247 14.0852 14.4758 13.7961 14.6055 13.4598L18.3313 3.13932H18.3331Z" stroke="white" stroke-width="3" stroke-linecap="round" stroke-linejoin="round"/>
</svg>
