<svg width="46" height="62" viewBox="0 0 46 62" fill="none" xmlns="http://www.w3.org/2000/svg">
<path d="M17.25 7.90574e-07C16.0604 -0.00062284 14.8999 0.367723 13.9285 1.05427C12.957 1.74083 12.2224 2.71178 11.8258 3.83333H5.75C4.22501 3.83333 2.76247 4.43914 1.68414 5.51747C0.605801 6.5958 0 8.05834 0 9.58333V55.5833C0 57.1083 0.605801 58.5709 1.68414 59.6492C2.76247 60.7275 4.22501 61.3333 5.75 61.3333H40.25C41.775 61.3333 43.2375 60.7275 44.3159 59.6492C45.3942 58.5709 46 57.1083 46 55.5833V9.58333C46 8.05834 45.3942 6.5958 44.3159 5.51747C43.2375 4.43914 41.775 3.83333 40.25 3.83333H34.1742C33.7776 2.71178 33.043 1.74083 32.0715 1.05427C31.1001 0.367723 29.9396 -0.00062284 28.75 7.90574e-07H17.25ZM15.3333 5.75C15.3333 5.24167 15.5353 4.75416 15.8947 4.39471C16.2542 4.03527 16.7417 3.83333 17.25 3.83333H28.75C29.2583 3.83333 29.7458 4.03527 30.1053 4.39471C30.4647 4.75416 30.6667 5.24167 30.6667 5.75C30.6667 6.25833 30.4647 6.74584 30.1053 7.10529C29.7458 7.46473 29.2583 7.66667 28.75 7.66667H17.25C16.7417 7.66667 16.2542 7.46473 15.8947 7.10529C15.5353 6.74584 15.3333 6.25833 15.3333 5.75ZM33.9403 30.107L20.5237 43.5237C20.3456 43.7022 20.1341 43.8438 19.9013 43.9404C19.6684 44.037 19.4188 44.0868 19.1667 44.0868C18.9146 44.0868 18.6649 44.037 18.4321 43.9404C18.1992 43.8438 17.9877 43.7022 17.8097 43.5237L12.0597 37.7737C11.8815 37.5955 11.7401 37.3839 11.6437 37.1511C11.5472 36.9182 11.4976 36.6687 11.4976 36.4167C11.4976 36.1646 11.5472 35.9151 11.6437 35.6823C11.7401 35.4494 11.8815 35.2379 12.0597 35.0597C12.4196 34.6998 12.9077 34.4976 13.4167 34.4976C13.6687 34.4976 13.9182 34.5472 14.1511 34.6437C14.3839 34.7401 14.5955 34.8815 14.7737 35.0597L19.1667 39.4565L31.2263 27.393C31.5862 27.0331 32.0744 26.8309 32.5833 26.8309C33.0923 26.8309 33.5804 27.0331 33.9403 27.393C34.3002 27.7529 34.5024 28.241 34.5024 28.75C34.5024 29.259 34.3002 29.7471 33.9403 30.107Z" fill="white"/>
</svg>
