<svg width="71" height="71" viewBox="0 0 71 71" fill="none" xmlns="http://www.w3.org/2000/svg">
<path d="M68.16 0H2.84C1.26912 0 0 1.26912 0 2.84V68.16C0 69.7309 1.26912 71 2.84 71H68.16C69.7309 71 71 69.7309 71 68.16V2.84C71 1.26912 69.7309 0 68.16 0ZM35.5976 36.0414L18.5576 50.3301C18.0961 50.7206 17.395 50.3923 17.395 49.7887V44.2241C17.395 44.02 17.4926 43.8159 17.6524 43.6828L27.3971 35.5L17.6524 27.3172C17.5708 27.2528 17.5052 27.1705 17.4605 27.0766C17.4159 26.9827 17.3935 26.8798 17.395 26.7759V21.2113C17.395 20.6077 18.0961 20.2794 18.5576 20.6699L35.5976 34.9497C35.9437 35.2337 35.9437 35.7574 35.5976 36.0414ZM53.605 49.7887C53.605 50.1792 53.3032 50.4987 52.9394 50.4987H36.5206C36.1567 50.4987 35.855 50.1792 35.855 49.7887V45.5287C35.855 45.1382 36.1567 44.8187 36.5206 44.8187H52.9394C53.3032 44.8187 53.605 45.1382 53.605 45.5287V49.7887Z" fill="#A3B4F2"/>
</svg>
