<svg width="86" height="86" viewBox="0 0 86 86" fill="none" xmlns="http://www.w3.org/2000/svg">
<path d="M59.125 32.25C59.125 36.5266 57.4261 40.6281 54.4021 43.6521C51.3781 46.6761 47.2766 48.375 43 48.375C38.7234 48.375 34.6219 46.6761 31.5979 43.6521C28.5739 40.6281 26.875 36.5266 26.875 32.25C26.875 27.9734 28.5739 23.8719 31.5979 20.8479C34.6219 17.8239 38.7234 16.125 43 16.125C47.2766 16.125 51.3781 17.8239 54.4021 20.8479C57.4261 23.8719 59.125 27.9734 59.125 32.25Z" fill="#A3B4F2"/>
<path fill-rule="evenodd" clip-rule="evenodd" d="M0 43C0 31.5957 4.53034 20.6585 12.5944 12.5944C20.6585 4.53034 31.5957 0 43 0C54.4043 0 65.3415 4.53034 73.4056 12.5944C81.4697 20.6585 86 31.5957 86 43C86 54.4043 81.4697 65.3415 73.4056 73.4056C65.3415 81.4697 54.4043 86 43 86C31.5957 86 20.6585 81.4697 12.5944 73.4056C4.53034 65.3415 0 54.4043 0 43ZM43 5.375C35.9146 5.37538 28.9732 7.37645 22.9749 11.1479C16.9766 14.9193 12.1651 20.3079 9.09431 26.6933C6.02347 33.0787 4.81808 40.2014 5.61687 47.2417C6.41566 54.282 9.18616 60.9536 13.6095 66.4887C17.4258 60.3397 25.8269 53.75 43 53.75C60.1731 53.75 68.5689 60.3344 72.3905 66.4887C76.8138 60.9536 79.5843 54.282 80.3831 47.2417C81.1819 40.2014 79.9765 33.0787 76.9057 26.6933C73.8349 20.3079 69.0234 14.9193 63.0251 11.1479C57.0268 7.37645 50.0854 5.37538 43 5.375Z" fill="#A3B4F2"/>
</svg>
