<svg width="92" height="92" viewBox="0 0 92 92" fill="none" xmlns="http://www.w3.org/2000/svg">
<path d="M63.25 34.5C63.25 39.075 61.4326 43.4626 58.1976 46.6976C54.9626 49.9326 50.575 51.75 46 51.75C41.425 51.75 37.0374 49.9326 33.8024 46.6976C30.5674 43.4626 28.75 39.075 28.75 34.5C28.75 29.925 30.5674 25.5374 33.8024 22.3024C37.0374 19.0674 41.425 17.25 46 17.25C50.575 17.25 54.9626 19.0674 58.1976 22.3024C61.4326 25.5374 63.25 29.925 63.25 34.5Z" fill="white"/>
<path fill-rule="evenodd" clip-rule="evenodd" d="M0 46C0 33.8 4.84642 22.0998 13.4731 13.4731C22.0998 4.84642 33.8 0 46 0C58.2 0 69.9002 4.84642 78.5269 13.4731C87.1536 22.0998 92 33.8 92 46C92 58.2 87.1536 69.9002 78.5269 78.5269C69.9002 87.1536 58.2 92 46 92C33.8 92 22.0998 87.1536 13.4731 78.5269C4.84642 69.9002 0 58.2 0 46ZM46 5.75C38.4202 5.7504 30.9946 7.89109 24.5778 11.9257C18.161 15.9602 13.0139 21.7247 9.72879 28.5556C6.44371 35.3865 5.15422 43.0062 6.00874 50.5377C6.86326 58.0691 9.82705 65.2062 14.559 71.1275C18.6415 64.5495 27.6287 57.5 46 57.5C64.3712 57.5 73.3528 64.5437 77.441 71.1275C82.173 65.2062 85.1367 58.0691 85.9913 50.5377C86.8458 43.0062 85.5563 35.3865 82.2712 28.5556C78.9861 21.7247 73.839 15.9602 67.4222 11.9257C61.0054 7.89109 53.5798 5.7504 46 5.75Z" fill="white"/>
</svg>
